<?xml version="1.0" encoding="UTF-8" standalone="no"?>
<!-- Created with Inkscape (http://www.inkscape.org/) -->

<svg
   xmlns:dc="http://purl.org/dc/elements/1.1/"
   xmlns:cc="http://creativecommons.org/ns#"
   xmlns:rdf="http://www.w3.org/1999/02/22-rdf-syntax-ns#"
   xmlns:svg="http://www.w3.org/2000/svg"
   xmlns="http://www.w3.org/2000/svg"
   xmlns:sodipodi="http://sodipodi.sourceforge.net/DTD/sodipodi-0.dtd"
   xmlns:inkscape="http://www.inkscape.org/namespaces/inkscape"
   width="61.927845mm"
   height="79.470421mm"
   viewBox="0 0 61.927845 79.470421"
   version="1.1"
   id="svg3806"
   inkscape:version="0.92.3 (2405546, 2018-03-11)"
   sodipodi:docname="blogo.svg"
   inkscape:export-filename="/home/nik/blogo.svg.png"
   inkscape:export-xdpi="96"
   inkscape:export-ydpi="96">
  <defs
     id="defs3800" />
  <sodipodi:namedview
     id="base"
     pagecolor="#ffffff"
     bordercolor="#666666"
     borderopacity="1.0"
     inkscape:pageopacity="0.0"
     inkscape:pageshadow="2"
     inkscape:zoom="1.4"
     inkscape:cx="433.81471"
     inkscape:cy="-158.39111"
     inkscape:document-units="mm"
     inkscape:current-layer="g3786"
     showgrid="false"
     fit-margin-top="12"
     fit-margin-left="12"
     fit-margin-right="12"
     fit-margin-bottom="12"
     inkscape:window-width="3840"
     inkscape:window-height="2160"
     inkscape:window-x="0"
     inkscape:window-y="0"
     inkscape:window-maximized="0" />
  <metadata
     id="metadata3803">
    <rdf:RDF>
      <cc:Work
         rdf:about="">
        <dc:format>image/svg+xml</dc:format>
        <dc:type
           rdf:resource="http://purl.org/dc/dcmitype/StillImage" />
        <dc:title></dc:title>
      </cc:Work>
    </rdf:RDF>
  </metadata>
  <g
     inkscape:label="Layer 1"
     inkscape:groupmode="layer"
     id="layer1"
     transform="translate(9.7972567,10.342358)">
    <g
       id="g3786"
       transform="matrix(0.35277777,0,0,-0.35277777,21.149379,50.13213)">
      <path
         d="m 0,0 c -14.466,0 -30.991,11.572 -30.991,35.121 0,23.75 16.525,35.322 30.991,35.322 14.457,0 30.983,-11.572 30.983,-35.322 C 30.983,11.572 14.457,0 0,0 m 0,90.273 c -0.197,0 -5.238,-0.029 -5.238,-0.029 -17.188,0 -19.436,7.833 -19.436,12.683 0,4.851 2.339,11.051 19.436,11.051 l 20.665,0.02 c 23.79,0 30.883,8.052 38.378,23.41 H 29.059 c -3.238,-4.002 -6.306,-4.069 -15.67,-4.069 l -18.627,0.067 c -25.774,0 -41.938,-11.658 -41.938,-30.479 0,-10.688 4.916,-19.316 13.608,-24.932 -11.469,-9.107 -20.139,-23.303 -20.139,-42.874 0,-37.392 31.185,-54.952 53.707,-54.952 22.513,0 53.707,17.56 53.707,54.952 0,37.181 -31.194,55.152 -53.707,55.152"
         style="fill:#ffffff;fill-opacity:1;fill-rule:nonzero;stroke:none"
         id="path3788"
         inkscape:connector-curvature="0" />
    </g>
  </g>
</svg>
