<svg id="Layer_1" data-name="Layer 1" xmlns="http://www.w3.org/2000/svg" viewBox="0 0 32 32"><defs><style>.cls-1{fill:#222;}</style></defs><path class="cls-1" d="M15.65,12.78a6.28,6.28,0,0,0-6.22,6.66,6.23,6.23,0,1,0,12.42,0,6.29,6.29,0,0,0-6.2-6.66M24,19.44a8.37,8.37,0,1,1-16.73,0,8.37,8.37,0,1,1,16.73,0"/><path class="cls-1" d="M17.73,4.75H15.59V6.61h2A5.53,5.53,0,0,0,22.5,4.09H19.87s-.36.66-2.14.66"/><path class="cls-1" d="M15.64,10.92H12.32A2.23,2.23,0,0,1,9.84,8.76a2.22,2.22,0,0,1,2.48-2.15h3.32V4.75H12.4c-2.44,0-4.5,1.43-4.5,4s2.06,4,4.5,4h1.07l2.17-.53Z"/></svg>