<svg id="Layer_1" data-name="Layer 1" xmlns="http://www.w3.org/2000/svg" viewBox="0 0 32 32"><defs><style>.cls-1{fill:none;stroke:#474747;stroke-miterlimit:10;}</style></defs><path class="cls-1" d="M16,25c-2.15,0-4.61-1.76-4.61-5.33s2.46-5.37,4.61-5.37,4.61,1.76,4.61,5.37S18.15,25,16,25m0-13.7h-.78c-2.56,0-2.89-1.19-2.89-1.92s.35-1.68,2.89-1.68h3.08c3.54,0,4.59-1.22,5.71-3.56H20.32c-.48.61-.94.62-2.34.62H15.21C11.37,4.74,9,6.51,9,9.37a4.35,4.35,0,0,0,2,3.78,8.1,8.1,0,0,0-3,6.51A8.14,8.14,0,0,0,16,28a8.13,8.13,0,0,0,8-8.34,8.19,8.19,0,0,0-8-8.37"/></svg>